<?xml version="1.0" encoding="UTF-8"?>
<svg width="95px" height="93px" viewBox="0 0 95 93" version="1.1" xmlns="http://www.w3.org/2000/svg" xmlns:xlink="http://www.w3.org/1999/xlink">
    <!-- Generator: Sketch 50.2 (55047) - http://www.bohemiancoding.com/sketch -->
    <title>Fill 30</title>
    <desc>Created with Sketch.</desc>
    <defs>
        <filter x="-9.9%" y="-8.5%" width="119.9%" height="126.8%" filterUnits="objectBoundingBox" id="filter-1">
            <feOffset dx="0" dy="20" in="SourceAlpha" result="shadowOffsetOuter1"></feOffset>
            <feGaussianBlur stdDeviation="15" in="shadowOffsetOuter1" result="shadowBlurOuter1"></feGaussianBlur>
            <feColorMatrix values="0 0 0 0 0   0 0 0 0 0   0 0 0 0 0  0 0 0 0.1 0" type="matrix" in="shadowBlurOuter1" result="shadowMatrixOuter1"></feColorMatrix>
            <feMerge>
                <feMergeNode in="shadowMatrixOuter1"></feMergeNode>
                <feMergeNode in="SourceGraphic"></feMergeNode>
            </feMerge>
        </filter>
    </defs>
    <g id="Design" stroke="none" stroke-width="1" fill="none" fill-rule="evenodd">
        <g id="1-job-listing" transform="translate(-748.000000, -1120.000000)" fill="#000000">
            <g id="job-card" filter="url(#filter-1)" transform="translate(736.000000, 1088.000000)">
                <path d="M75.996465,63.0259407 C76.5655517,62.4570438 77.2767443,62.1124952 78,62 C77.9068092,62.7038654 77.5739472,63.403493 77.0049932,63.9725183 C76.3230966,64.6542956 75.6586982,64.9784256 75,65 C75.0014582,64.3614999 75.3147011,63.7078464 75.996465,63.0259407 Z M74.8271336,68.2012618 C74.1452448,68.8724266 73.5427821,69.1030118 73,68.9588756 C73.1173643,68.1648192 73.4925307,67.4331891 74.1743085,66.7620242 C74.7433812,66.2018214 75.3877755,65.9579992 76,66.0058811 C75.7956663,66.8572979 75.3962062,67.6410589 74.8271336,68.2012618 Z M71,69.8251946 C71.2721862,69.1836302 71.8341489,68.6641133 72.7432879,68.278551 C73.5019177,67.9567765 74.29467,67.9234651 75,68.1287203 C74.6167174,68.7957999 74.017458,69.3528807 73.2586959,69.6746552 C72.3495569,70.0602175 71.6081206,70.093529 71,69.8251946 Z M68,73.4581619 C68.3696316,72.7547778 68.9836066,72.2810377 69.8927881,72.067608 C70.6514991,71.8894267 71.3881444,72.0714853 72,72.5189652 C71.5232812,73.2221731 70.8679175,73.7309855 70.1092065,73.9091667 C69.2000249,74.1225965 68.5106277,73.9549898 68,73.4581619 Z M64,74.8561842 C64.4603404,74.2412531 65.1228416,73.9429796 66.0319493,74.0090125 C66.7907292,74.0641649 67.4750223,74.487188 68,75.1467664 C67.43624,75.7271804 66.7285543,76.048903 65.9698975,75.9939382 C65.0607898,75.9279053 64.4198344,75.5348971 64,74.8561842 Z M62,74.343872 C62.5530317,73.9531897 63.2649997,73.8853011 64.174079,74.1922543 C64.9328752,74.4484526 65.5637844,74.9939854 66,75.694692 C65.3474582,76.0278307 64.5864987,76.1031546 63.8278297,75.8469563 C62.9186231,75.5398415 62.3272889,75.0316474 62,74.343872 Z M64,71 C63.8985223,71.7118754 63.5607428,72.4163341 62.9917615,72.98534 C62.3097947,73.6671582 61.6500588,73.986728 61,74 C61.0100693,73.3530534 61.3279718,72.6950468 62.0098078,72.0130985 C62.5787891,71.4440926 63.2850791,71.1044847 64,71 Z M66.9891391,70 C67.0548505,70.604121 66.8234392,71.2437527 66.266146,71.8128014 C65.5984977,72.4946295 64.860289,72.8742876 64.0511856,73 C63.8888298,72.4654757 64.1080352,71.8674923 64.7756835,71.1856642 C65.3329767,70.6167251 66.1236876,70.2122972 66.9891391,70 Z M69.8494995,68 C70.0734691,68.6968055 70.0553603,69.484356 69.7418609,70.2430152 C69.3660672,71.1521718 68.8465621,71.7189665 68.1963839,72 C67.9099752,71.4008996 67.9290981,70.6641715 68.3048918,69.7550149 C68.6183912,68.9963558 69.1755626,68.391871 69.8494995,68 Z M70.432778,66 C70.902428,66.604245 71.1064372,67.3362752 70.945838,68.0949066 C70.7534405,69.004071 70.2895071,69.6223624 69.5863719,70 C69.0693818,69.4973119 68.8814504,68.8122689 69.0738479,67.9031045 C69.2342685,67.1444731 69.7328584,66.4844153 70.432778,66 Z M73.9831268,64.955939 C74.0739642,65.8650131 73.7960428,66.5317825 73.197486,67 C72.5110762,66.5878601 72.1025877,65.9511631 72.0115638,65.042089 C71.9358349,64.283377 72.2359526,63.5712525 72.7973911,63 C73.4677599,63.5173933 73.9072114,64.1972269 73.9831268,64.955939 Z M73.8750436,51.8602385 C74.5569306,52.5386772 74.9149242,53.2449577 75,53.9852505 C74.4248361,54.0684751 73.805214,53.8019456 73.123327,53.123507 C72.5543314,52.5573388 72.173294,51.8009429 72,51 C72.6430151,51.0115882 73.306048,51.2939199 73.8750436,51.8602385 Z M71.7314566,49.3528062 C72.4132144,49.7674909 72.8211866,50.2822539 73,50.8903013 C72.518603,51.0969904 71.9489737,51.0172936 71.2671137,50.6027395 C70.6980972,50.256777 70.2631651,49.7049093 70,49.0662896 C70.55329,48.9240113 71.16244,49.0068437 71.7314566,49.3528062 Z M70.1525049,47.1252464 C71.0615958,47.4072622 71.6599912,47.9077736 72,48.6030023 C71.4598522,49.0251945 70.7546908,49.1214723 69.8454735,48.8396228 C69.0868659,48.6043326 68.4484175,48.0669063 68,47.3625321 C68.6402173,46.995712 69.3937709,46.8899561 70.1525049,47.1252464 Z M66,44.9408871 C66.5521695,44.3329625 67.2528061,43.9787328 68.011501,44.0009901 C68.920631,44.0277742 69.5681294,44.3946415 70,45.0585864 C69.5517697,45.6966903 68.895661,46.0252676 67.986531,45.9984835 C67.227836,45.9762262 66.5365479,45.5810658 66,44.9408871 Z M64,42.0216847 C64.592437,41.9273569 65.2250593,42.139032 65.7941176,42.6908067 C66.4758673,43.3519671 66.8620987,44.0993206 67,44.9307903 C66.4776988,45.1223884 65.8862314,44.9216172 65.2043741,44.2604568 C64.6353157,43.7086821 64.2239819,42.9080204 64,42.0216847 Z M70.5429561,42.2299537 C70.9756477,42.9118101 71.0899413,43.494453 70.9329845,44 C70.3571532,43.8454922 69.8513767,43.4504283 69.4186852,42.7685718 C69.0577452,42.1996208 68.9375127,41.5765342 69.0297475,41 C69.639879,41.2400295 70.1820161,41.6610027 70.5429561,42.2299537 Z M72.7714516,44.8035439 C73.1035874,45.7126348 73.065763,46.4324602 72.7097134,47 C72.0321562,46.6873395 71.5179318,46.103621 71.1857959,45.19453 C70.9085211,44.4357987 70.9516597,43.6664099 71.2481593,43 C71.9424405,43.422188 72.4941768,44.0448125 72.7714516,44.8035439 Z M75.9759375,47.9472597 C76.0848579,48.8563674 75.8215564,49.5261389 75.2357616,50 C74.5445721,49.5937452 74.1255906,48.9599975 74.0166702,48.0508898 C73.9259342,47.2921691 74.2102033,46.5767511 74.7572172,46 C75.4343047,46.5119822 75.8852015,47.188539 75.9759375,47.9472597 Z M73,55 C73.7674586,55.1497522 74.5047089,55.5165787 75.0728221,56.085613 C75.7535034,56.7674147 76.041051,57.4002659 75.9953112,58 C75.2902639,57.9395673 74.6017456,57.5948592 73.9209218,56.9129366 C73.3529511,56.3440232 73.0477346,55.6666935 73,55 Z M73.171751,62.1851319 C72.9031447,61.4264428 72.9595932,60.6605915 73.2713288,60 C73.968532,60.4280735 74.5181127,61.0542606 74.7867191,61.8129496 C75.1087613,62.7220464 75.0583382,63.4386571 74.6879341,64 C74.0056359,63.6811511 73.4937933,63.0942286 73.171751,62.1851319 Z M73.0363993,57 C73.653112,57.2451988 74.1977269,57.6694085 74.5558738,58.2383326 C74.9850092,58.920184 75.0922314,59.499878 74.9246197,60 C74.3416759,59.839915 73.8334178,59.4419504 73.4042824,58.760099 C73.0461356,58.1910704 72.9336138,57.5712244 73.0363993,57 Z M77.3965555,49 C77.882195,49.5986538 78.1021209,50.3273365 77.9548427,51.0860449 C77.7783612,51.9951301 77.3222854,52.6166134 76.6199648,53 C76.0887176,52.5030863 75.8857369,51.8210552 76.0622183,50.91197 C76.2094966,50.1532616 76.6996428,49.4898415 77.3965555,49 Z M77.7565804,56.2331417 C77.3886675,57.1423157 76.8694688,57.7124935 76.2132593,58 C75.9133367,57.4073445 75.9217251,56.6740721 76.289638,55.7648981 C76.5967717,55.0061422 77.1537919,54.3980659 77.8323705,54 C78.0701894,54.6905384 78.0637141,55.4743858 77.7565804,56.2331417 Z M78.2868774,58.8036516 C77.6220659,59.4855093 76.8793813,59.8683886 76.0595038,60 C75.8831842,59.4714896 76.0936795,58.8766845 76.758321,58.1948268 C77.3131241,57.6257789 78.1088576,57.2180119 78.9843345,57 C79.0639078,57.5983915 78.8416805,58.2346037 78.2868774,58.8036516 Z M55,71 C55.7150205,71.1044847 56.421149,71.4440926 56.9902362,72.0130985 C57.6720425,72.6950468 57.9899311,73.3530534 58,74 C57.3499695,73.986728 56.6901316,73.6671582 56.0083253,72.98534 C55.4393688,72.4163341 55.101604,71.7118754 55,71 Z M54,75.694692 C54.4360883,74.9939854 55.0671248,74.4484526 55.8257937,74.1922543 C56.7350003,73.8853011 57.4469683,73.9531897 58,74.343872 C57.6727111,75.0316474 57.0812496,75.5398415 56.1721703,75.8469563 C55.4135013,76.1031546 54.6525418,76.0278307 54,75.694692 Z M50,75.1467664 C50.5249777,74.487188 51.2092708,74.0641649 51.9679276,74.0090125 C52.8771584,73.9429796 53.5396596,74.2412531 54,74.8561842 C53.5801656,75.5348971 52.9392102,75.9279053 52.0301025,75.9939382 C51.2714457,76.048903 50.56376,75.7271804 50,75.1467664 Z M47,72.5189652 C47.6118556,72.0714853 48.3485009,71.8894267 49.1072119,72.067608 C50.0162688,72.2810377 50.6303684,72.7547778 51,73.4581619 C50.4893723,73.9549898 49.7999751,74.1225965 48.8907935,73.9091667 C48.1320825,73.7309855 47.4767188,73.2221731 47,72.5189652 Z M44,68.1287203 C44.7053533,67.9234651 45.4981318,67.9567765 46.2567867,68.278551 C47.1659558,68.6641133 47.727937,69.1836302 48,69.8251946 C47.3919915,70.093529 46.6503984,70.0602175 45.7412294,69.6746552 C44.9825745,69.3528807 44.3832953,68.7957999 44,68.1287203 Z M43,66.0058811 C43.6121136,65.9579992 44.2566188,66.2018214 44.8256915,66.7620242 C45.5074693,67.4331891 45.8826357,68.1648192 46,68.9588756 C45.4572179,69.1030118 44.8546443,68.8724266 44.1728664,68.2012618 C43.6037938,67.6410589 43.2043337,66.8572979 43,66.0058811 Z M41,62 C41.7232557,62.1124952 42.4344483,62.4570438 43.003535,63.0259407 C43.6852989,63.7078464 43.9985418,64.3614999 44,65 C43.3411692,64.9784256 42.6767708,64.6542956 41.9950068,63.9725183 C41.4259202,63.403493 41.0931908,62.7038654 41,62 Z M43.2415104,58.1948268 C43.9063224,58.8766845 44.1168178,59.4714896 43.9404981,60 C43.12062,59.8683886 42.377935,59.4855093 41.713123,58.8036516 C41.1583196,58.2346037 40.9360922,57.5983915 41.0156656,57 C41.891143,57.2180119 42.686707,57.6257789 43.2415104,58.1948268 Z M42.7103726,55.7648981 C43.078272,56.6740721 43.0866601,57.4073445 42.7867485,58 C42.1305632,57.7124935 41.6113836,57.1423157 41.243337,56.2331417 C40.9363617,55.4743858 40.9297396,54.6905384 41.1676969,54 C41.8462505,54.3980659 42.4032502,55.0061422 42.7103726,55.7648981 Z M43.937784,50.91197 C44.1142657,51.8210552 43.9112847,52.5030863 43.3798566,53 C42.6777154,52.6166134 42.2216391,51.9951301 42.0451574,51.0860449 C41.897879,50.3273365 42.1178051,49.5986538 42.6034453,49 C43.3001785,49.4898415 43.7905056,50.1532616 43.937784,50.91197 Z M44.2428302,46 C44.7898099,46.5767511 45.0740612,47.2921691 44.9833308,48.0508898 C44.8744173,48.9599975 44.455462,49.5937452 43.7643157,50 C43.1783721,49.5261389 42.9152726,48.8563674 43.0240006,47.9472597 C43.1149165,47.188539 43.5655996,46.5119822 44.2428302,46 Z M48,49.0662896 C47.7367328,49.7049093 47.3019028,50.256777 46.7328863,50.6027395 C46.0510263,51.0172936 45.481397,51.0969904 45,50.8903013 C45.1787112,50.2822539 45.5866835,49.7674909 46.2685434,49.3528062 C46.83756,49.0068437 47.44671,48.9240113 48,49.0662896 Z M47.7518504,43 C48.0483384,43.6664099 48.0914753,44.4357987 47.8142113,45.19453 C47.4820884,46.103621 46.9678841,46.6873395 46.2901971,47 C45.9343177,46.4324602 45.8963384,45.7126348 46.2286176,44.8035439 C46.5058816,44.0448125 47.0575963,43.422188 47.7518504,43 Z M51,47.3625321 C50.5515825,48.0669063 49.9131341,48.6043326 49.1544002,48.8396228 C48.2453092,49.1214723 47.5401478,49.0251945 47,48.6030023 C47.3400088,47.9077736 47.9384042,47.4072622 48.8474951,47.1252464 C49.6062291,46.8899561 50.3597827,46.995712 51,47.3625321 Z M50.9702545,41 C51.0624868,41.5765342 50.9422575,42.1996208 50.5812062,42.7685718 C50.1486476,43.4504283 49.6428849,43.8454922 49.0670693,44 C48.9099956,43.494453 49.0244073,42.9118101 49.4569659,42.2299537 C49.8180172,41.6610027 50.3600184,41.2400295 50.9702545,41 Z M54,42.0216847 C53.7760181,42.9080204 53.3646843,43.7086821 52.7956259,44.2604568 C52.1137686,44.9216172 51.5223012,45.1223884 51,44.9307903 C51.1379013,44.0993206 51.524025,43.3519671 52.2058824,42.6908067 C52.7749407,42.139032 53.407563,41.9273569 54,42.0216847 Z M52.0135301,45.9984835 C51.104428,46.0252676 50.4483395,45.6966903 50,45.0585864 C50.4319803,44.3946415 51.0793358,44.0277742 51.9885609,44.0009901 C52.7472325,43.9787328 53.4478475,44.3329625 54,44.9408871 C53.4634686,45.5810658 52.7722017,45.9762262 52.0135301,45.9984835 Z M44,53.9852505 C44.0850758,53.2449577 44.442953,52.5386772 45.12484,51.8602385 C45.6938356,51.2939199 46.3568685,51.0115882 47,51 C46.826706,51.8009429 46.4456686,52.5573388 45.876673,53.123507 C45.194786,53.8019456 44.5751639,54.0684751 44,53.9852505 Z M45.7286712,60 C46.0404068,60.6605915 46.0968553,61.4264428 45.828249,62.1851319 C45.5062067,63.0942286 44.9942056,63.6811511 44.3120659,64 C43.9416618,63.4386571 43.8912387,62.7220464 44.2132809,61.8129496 C44.4818873,61.0542606 45.0313094,60.4280735 45.7286712,60 Z M43.9271779,56.085613 C44.4952911,55.5165787 45.2325414,55.1497522 46,55 C45.9522654,55.6666935 45.6470489,56.3440232 45.0789357,56.9129366 C44.3982544,57.5948592 43.7095936,57.9395673 43.0046888,58 C42.958949,57.4002659 43.2464966,56.7674147 43.9271779,56.085613 Z M44.9635985,57 C45.0663903,57.5712244 44.9538616,58.1910704 44.5956926,58.760099 C44.1665308,59.4419504 43.6583647,59.839915 43.075385,60 C42.9077629,59.499878 43.0149917,58.920184 43.4441535,58.2383326 C43.8023225,57.6694085 44.346971,57.2451988 44.9635985,57 Z M47.9883841,65.042089 C47.897543,65.9511631 47.489038,66.5878601 46.8024137,67 C46.2040191,66.5317825 45.9258999,65.8650131 46.0169276,64.955939 C46.0928461,64.1972269 46.5323154,63.5173933 47.2027114,63 C47.7641726,63.5712525 48.0643026,64.283377 47.9883841,65.042089 Z M49.926153,67.9031045 C50.1185482,68.8122689 49.930619,69.4973119 49.4136349,70 C48.7105081,69.6223624 48.2465801,69.004071 48.0541849,68.0949066 C47.8935876,67.3362752 48.0974158,66.604245 48.5670602,66 C49.2671502,66.4844153 49.7655556,67.1444731 49.926153,67.9031045 Z M51.6951082,69.7550149 C52.0709019,70.6641715 52.0900248,71.4008996 51.8036161,72 C51.1534379,71.7189665 50.633788,71.1521718 50.2581391,70.2430152 C49.9446397,69.484356 49.9265309,68.6968055 50.1505005,68 C50.8244374,68.391871 51.3816088,68.9963558 51.6951082,69.7550149 Z M54.2243892,71.1856642 C54.8920462,71.8674923 55.1112544,72.4654757 54.9487293,73 C54.1397825,72.8742876 53.4015643,72.4946295 52.7339073,71.8128014 C52.1766068,71.2437527 51.9450253,70.604121 52.0109048,70 C52.8763675,70.2122972 53.6670887,70.6167251 54.2243892,71.1856642 Z M77.7611264,60.7634185 C77.9633696,60.5424739 78.1612106,60.2827164 78.351542,59.9735251 C79.0223628,58.8833568 79.1579253,57.6170884 78.8265934,56.5248221 C78.5302204,56.5726825 78.2377316,56.6571266 77.9549536,56.7742207 C78.1067008,56.5151189 78.2460181,56.21904 78.3677266,55.8761497 C78.7968137,54.6674449 78.6659124,53.400652 78.1148578,52.4034509 C77.8350578,52.5134643 77.5666518,52.6584879 77.3145599,52.8332767 C77.4090782,52.5475566 77.483657,52.2283998 77.5313045,51.8672832 C77.6993658,50.5940652 77.3079565,49.3836558 76.5619095,48.5263645 C76.3112418,48.6936792 76.0789599,48.8927261 75.8689481,49.1173422 C75.9018352,48.817854 75.9084386,48.4899119 75.8799536,48.1268284 C75.7793499,46.8462675 75.1450416,45.7465271 74.2374071,45.067696 C74.0271363,45.2847069 73.8414662,45.5287294 73.6828567,45.7930762 C73.652818,45.4933259 73.590928,45.1712843 73.4876052,44.8224934 C73.1228683,43.5921531 72.2740164,42.6523845 71.2455798,42.1823035 C71.0851577,42.4393073 70.9545153,42.7175533 70.8544295,43.0098296 C70.7626302,42.7231917 70.6352248,42.4216055 70.461596,42.1025798 C69.8492988,40.9776636 68.8239696,40.2400888 67.7208247,40 C67.5113308,40.5783898 67.4361046,41.2147365 67.5060222,41.8546236 C67.3708481,41.7535267 67.2257043,41.6538721 67.0667064,41.5567089 C65.980782,40.8928261 64.728609,40.773634 63.6548554,41.1245229 C63.8484236,42.2503571 64.5360765,43.3167918 65.6220009,43.9805436 C65.7809988,44.0778379 65.9355945,44.1614953 66.0869532,44.2354494 C65.4953723,44.4709489 64.974486,44.8348191 64.5666331,45.2920499 C65.1732333,46.0268711 66.0602809,46.5483528 67.0781004,46.7127828 C67.5205237,47.5468652 68.2718793,48.2340882 69.2210759,48.6075305 C69.4800301,49.5172716 70.0716109,50.349256 70.921887,50.9167624 C70.9858487,51.8613826 71.3911121,52.800889 72.1042719,53.5370214 C71.9703926,54.4740364 72.1710821,55.4789738 72.7151449,56.35082 C72.389251,57.23827 72.3764328,58.2634006 72.7270568,59.2316232 C72.2239088,60.0297775 71.9981007,61.0292077 72.1394897,62.0505357 C71.4816165,62.723335 71.0530474,63.6522203 70.9787275,64.6807601 C70.1957795,65.1980459 69.5836118,66.0146887 69.2970789,67.0042846 C68.4240149,67.3431101 67.6556977,68.0107955 67.1697702,68.9169963 C66.2458216,69.0620199 65.3559255,69.5508517 64.6923554,70.3331399 C63.5766512,70.2667909 62.4052719,70.6897983 61.5196485,71.5911474 C60.9469713,72.1741266 60.6129204,72.7390105 60.4469308,73.2713756 C60.1684255,74.2234699 58.8318334,74.2238633 58.5530692,73.2715067 C58.3870796,72.7391416 58.0530287,72.1741266 57.480222,71.5911474 C56.5945986,70.6897983 55.4232193,70.2667909 54.3076446,70.3331399 C53.6440745,69.5508517 52.7541784,69.0620199 51.8302298,68.9169963 C51.3441728,68.0107955 50.5759851,67.3431101 49.7029211,67.0042846 C49.4163882,66.0146887 48.8042205,65.1980459 48.0212725,64.6807601 C47.9469526,63.6522203 47.5183835,62.723335 46.8605103,62.0505357 C47.0017698,61.0292077 46.7760912,60.0297775 46.2729432,59.2316232 C46.6234377,58.2634006 46.610749,57.23827 46.2848551,56.35082 C46.8289179,55.4789738 47.0296074,54.4740364 46.8957281,53.5370214 C47.6088879,52.800889 48.0141513,51.8613826 48.078113,50.9167624 C48.9283891,50.349256 49.5198405,49.5172716 49.7789241,48.6075305 C50.7281207,48.2340882 51.4794763,47.5468652 51.9218996,46.7127828 C52.9397191,46.5483528 53.8267667,46.0268711 54.4333669,45.2920499 C54.025514,44.8348191 53.5046277,44.4709489 52.9130468,44.2354494 C53.064276,44.1614953 53.2190012,44.0778379 53.3779991,43.9805436 C54.4639235,43.3167918 55.1515764,42.2503571 55.3451446,41.1245229 C54.271391,40.773634 53.019218,40.8928261 51.9332936,41.5567089 C51.7742957,41.6538721 51.6290224,41.7535267 51.4939778,41.8546236 C51.5637659,41.2147365 51.4886692,40.5783898 51.2791753,40 C50.1760304,40.2400888 49.1507012,40.9776636 48.538404,42.1025798 C48.3646458,42.4216055 48.2373698,42.7231917 48.1455705,43.0098296 C48.0454847,42.7175533 47.9148423,42.4393073 47.7544202,42.1823035 C46.7259836,42.6523845 45.8771317,43.5921531 45.5123948,44.8224934 C45.4089426,45.1712843 45.347182,45.4933259 45.3171433,45.7930762 C45.1585338,45.5287294 44.9728637,45.2847069 44.7625929,45.067696 C43.8549584,45.7465271 43.2206501,46.8462675 43.1200464,48.1268284 C43.0915614,48.4899119 43.0981648,48.817854 43.1310519,49.1173422 C42.9209106,48.8927261 42.6887582,48.6936792 42.4380905,48.5263645 C41.6920435,49.3836558 41.3006342,50.5940652 41.468566,51.8672832 C41.5162136,52.2283998 41.5909218,52.5475566 41.6854401,52.8332767 C41.4333482,52.6584879 41.1649422,52.5134643 40.8851422,52.4034509 C40.3340876,53.400652 40.2031863,54.6674449 40.6322734,55.8761497 C40.7539819,56.21904 40.8932992,56.5151189 41.0450464,56.7742207 C40.7622684,56.6571266 40.4697796,56.5726825 40.1734066,56.5248221 C39.8420747,57.6170884 39.9776372,58.8833568 40.648458,59.9735251 C40.8386599,60.2827164 41.0365009,60.5424739 41.2388736,60.7634185 C40.9380983,60.7092641 40.634604,60.689071 40.334735,60.7054615 C40.2381451,61.8440147 40.6340861,63.0529818 41.516602,63.975442 C41.7668812,64.2371663 42.014312,64.4489322 42.2579879,64.6217542 C41.9526809,64.6328997 41.6517761,64.6780065 41.3621358,64.7579924 C41.5044311,65.8915629 42.1428827,66.9889431 43.1974737,67.7025221 C43.4965658,67.904847 43.7824512,68.0590493 44.0566837,68.1760123 C43.7605696,68.2521956 43.4758495,68.3603732 43.2092561,68.500283 C43.5842218,69.5781256 44.4365695,70.5146161 45.6159764,70.9873196 C45.9504158,71.1213287 46.2619377,71.2111489 46.554297,71.2670079 C46.2807119,71.4045574 46.0248651,71.5710854 45.7933601,71.7647562 C46.3840346,72.7383549 47.4120828,73.472127 48.6633494,73.6825817 C49.0182462,73.7422433 49.341421,73.7634855 49.6388299,73.7557491 C49.3999447,73.948502 49.1844948,74.1659063 48.9985656,74.4046838 C49.7784062,75.2305053 50.936061,75.7283847 52.2029944,75.6671496 C52.5622933,75.6498412 52.8826197,75.6015874 53.171742,75.5306491 C52.9783032,75.7700823 52.812961,76.0286596 52.6807649,76.3016606 C53.6149421,76.9424656 54.8501537,77.1822921 56.0759134,76.852252 C56.6665879,76.6931981 57.1351655,76.4739581 57.5049521,76.2152496 C58.6964004,75.3938863 60.2755031,75.3744799 61.4950479,76.2152496 C61.8648345,76.4739581 62.3334121,76.6931981 62.9239572,76.852252 C64.1498463,77.1822921 65.3849284,76.9424656 66.3191056,76.3016606 C66.187039,76.0286596 66.0215673,75.7700823 65.8281285,75.5306491 C66.1172508,75.6015874 66.4377067,75.6498412 66.7970056,75.6671496 C68.063939,75.7283847 69.2215938,75.2305053 70.0014344,74.4046838 C69.8155052,74.1659063 69.6000553,73.948502 69.3611701,73.7557491 C69.658579,73.7634855 69.9817538,73.7422433 70.3366506,73.6825817 C71.5879172,73.472127 72.6158359,72.7383549 73.2065105,71.7647562 C72.9751349,71.5710854 72.7192881,71.4045574 72.445703,71.2670079 C72.7379328,71.2111489 73.0495842,71.1213287 73.3840236,70.9873196 C74.5634305,70.5146161 75.4157782,69.5781256 75.7907439,68.500283 C75.5241505,68.3603732 75.2394304,68.2521956 74.9433163,68.1760123 C75.2174193,68.0590493 75.5033047,67.904847 75.8025263,67.7025221 C76.8571173,66.9889431 77.4955689,65.8915629 77.6378642,64.7579924 C77.3482239,64.6780065 77.0473191,64.6328997 76.7420121,64.6217542 C76.985688,64.4489322 77.2331188,64.2371663 77.483398,63.975442 C78.3659139,63.0529818 78.7618549,61.8440147 78.665265,60.7054615 C78.365396,60.689071 78.0619017,60.7092641 77.7611264,60.7634185 Z" id="Fill-30"></path>
            </g>
        </g>
    </g>
</svg>