<?xml version="1.0" encoding="UTF-8"?>
<svg width="34px" height="34px" viewBox="0 0 34 34" version="1.1" xmlns="http://www.w3.org/2000/svg" xmlns:xlink="http://www.w3.org/1999/xlink">
    <!-- Generator: Sketch 48.2 (47327) - http://www.bohemiancoding.com/sketch -->
    <title>Shape</title>
    <desc>Created with Sketch.</desc>
    <defs></defs>
    <g id="job-details_military_apply-1" stroke="none" stroke-width="1" fill="none" fill-rule="evenodd" transform="translate(-266.000000, -1771.000000)">
        <g id="input" transform="translate(152.000000, 1572.000000)" fill="#43BA80" fill-rule="nonzero">
            <path d="M115.20196,217.209961 C114.532281,217.209961 114,216.660667 114,215.99135 C114,215.322033 114.532281,214.790039 115.20196,214.790039 L129.780189,214.790039 L129.780189,200.218611 C129.781271,199.549294 130.330862,199 131.000541,199 C131.67022,199 132.202501,199.549294 132.202501,200.218611 L132.202501,214.790039 L146.78073,214.790039 C147.450409,214.790039 148,215.322033 148,215.99135 C148,216.660667 147.450409,217.209961 146.78073,217.209961 L132.202501,217.209961 L132.202501,231.781389 C132.202501,232.450706 131.67022,233 131.000541,233 C130.330862,233 129.781271,232.450706 129.781271,231.781389 L129.781271,217.209961 L115.20196,217.209961 Z" id="Shape"></path>
        </g>
    </g>
</svg>